<svg width="50" height="50" viewBox="0 0 50 50" fill="none" xmlns="http://www.w3.org/2000/svg">
<mask id="mask0_130_210" style="mask-type:luminance" maskUnits="userSpaceOnUse" x="0" y="0" width="50" height="50">
<path d="M49.4236 49.8301H0.166016V0.587654H49.4236V49.8301Z" fill="white"/>
</mask>
<g mask="url(#mask0_130_210)">
<path d="M19.7066 10.9288C18.6124 10.9288 17.6549 11.3118 16.8342 12.0778C16.0135 12.8438 15.6032 13.8012 15.6032 14.9503C15.6032 16.0993 16.0135 17.0568 16.8342 17.8228C17.6549 18.5887 18.6124 18.9717 19.7066 18.9717C20.801 18.9717 21.7585 18.5887 22.5791 17.8228C23.3998 17.0568 23.8102 16.0993 23.8102 14.9503C23.8102 13.8012 23.3998 12.8438 22.5791 12.0778C21.7585 11.3118 20.801 10.9288 19.7066 10.9288ZM19.7066 17.002C19.1595 17.002 18.6671 16.8106 18.2294 16.4275C17.7916 16.0446 17.5728 15.5521 17.5728 14.9503C17.5728 14.3484 17.7916 13.856 18.2294 13.473C18.6671 13.09 19.1595 12.8985 19.7066 12.8985C20.2538 12.8985 20.7462 13.09 21.1839 13.473C21.6216 13.856 21.8405 14.3484 21.8405 14.9503C21.8405 15.5521 21.6216 16.0446 21.1839 16.4275C20.7462 16.8106 20.2538 17.002 19.7066 17.002ZM11.6638 25.8656H5.09807C4.76979 25.8656 4.52358 25.9478 4.35943 26.1118C4.1953 26.276 4.11322 26.5222 4.11322 26.8505V33.4162C4.11322 33.635 4.1953 33.8265 4.35943 33.9906C4.52358 34.1548 4.76979 34.2368 5.09807 34.2368H11.6638C11.8825 34.2368 12.0741 34.1548 12.2382 33.9906C12.4024 33.8265 12.4844 33.635 12.4844 33.4162V26.8505C12.4844 26.5222 12.4024 26.276 12.2382 26.1118C12.0741 25.9478 11.8825 25.8656 11.6638 25.8656ZM10.6789 32.4313H6.08292V27.8353H10.6789V32.4313ZM49.088 29.1485L47.2824 25.0449C47.173 24.7167 46.9815 24.5252 46.7079 24.4705C46.4344 24.4158 46.1882 24.4158 45.9693 24.4705C45.7504 24.5252 45.5863 24.6893 45.4769 24.9629C45.3674 25.2365 45.3674 25.4827 45.4769 25.7015L47.2824 29.9692C47.6107 30.5163 47.6107 31.0087 47.2824 31.4465C46.9541 31.8842 46.5164 32.1031 45.9693 32.1031H39.2395V28.3278C39.2395 28.109 39.13 27.9174 38.9112 27.7533C38.6923 27.5891 38.4461 27.5071 38.1725 27.5071C37.899 27.5071 37.6801 27.5891 37.516 27.7533C37.3519 27.9174 37.2698 28.109 37.2698 28.3278V32.1031H30.54C29.9928 32.1031 29.5551 31.8842 29.2269 31.4465C28.8986 31.0087 28.8438 30.5163 29.0627 29.9692L36.285 13.3909C36.6132 12.5155 37.2424 12.0778 38.1725 12.0778C39.1027 12.0778 39.7319 12.5155 40.0602 13.3909L42.0299 17.8228C42.1393 18.0416 42.3308 18.2057 42.6044 18.3152C42.8779 18.4246 43.1241 18.4246 43.343 18.3152C43.5619 18.2057 43.726 18.0143 43.8354 17.7406C43.9449 17.4671 43.9449 17.2209 43.8354 17.002L41.8657 12.5702C41.3186 11.3665 40.4432 10.6005 39.2395 10.2722V6.1687C39.2395 5.84042 39.13 5.59421 38.9112 5.43006C38.6923 5.26592 38.4735 5.18385 38.2547 5.18385H24.6309L20.3632 0.916177C20.1444 0.697319 19.8982 0.587891 19.6246 0.587891C19.351 0.587891 19.1595 0.697319 19.0501 0.916177L14.6183 5.18385H10.1865V1.57274C10.1865 1.24446 10.1044 0.998245 9.94027 0.834103C9.77611 0.669962 9.52989 0.587891 9.20164 0.587891H3.78494C3.56608 0.587891 3.34723 0.669962 3.12837 0.834103C2.90952 0.998245 2.80009 1.24446 2.80009 1.57274V5.18385H1.15868C0.830395 5.18385 0.584182 5.26592 0.42004 5.43006C0.255899 5.59421 0.173828 5.84042 0.173828 6.1687V39.8177C0.173828 40.0365 0.255899 40.2554 0.42004 40.4743C0.584182 40.6931 0.830395 40.8025 1.15868 40.8025H34.3153V45.8909C34.3153 46.9852 34.6982 47.9153 35.4642 48.6813C36.2302 49.4473 37.1603 49.8303 38.2547 49.8303C39.3489 49.8303 40.2791 49.4473 41.045 48.6813C41.811 47.9153 42.1941 46.9852 42.1941 45.8909V37.5197C42.1941 37.1914 42.0846 36.9452 41.8657 36.7811C41.6469 36.6169 41.428 36.5349 41.2092 36.5349H39.2395V34.0728H45.9693C47.173 34.0728 48.1305 33.553 48.8418 32.5134C49.553 31.4738 49.6351 30.3522 49.088 29.1485ZM37.2698 7.15355V10.2722C35.9566 10.6005 35.0265 11.3665 34.4794 12.5702L33.8228 14.3758L26.6006 7.15355H37.2698ZM4.76979 2.55759H8.21679V5.18385H4.76979V2.55759ZM3.78494 7.15355H12.8127L2.14352 17.8228V7.15355H3.78494ZM16.4238 38.8328V24.5525H22.9895V38.8328H16.4238ZM40.2244 45.8909C40.2244 46.4381 40.0328 46.9031 39.6498 47.2861C39.2669 47.6691 38.8018 47.8606 38.2547 47.8606C37.7075 47.8606 37.215 47.6691 36.7774 47.2861C36.3397 46.9031 36.1208 46.4381 36.1208 45.8909V38.3404H40.2244V45.8909ZM35.136 36.5349C34.9171 36.5349 34.7256 36.6169 34.5615 36.7811C34.3973 36.9452 34.3153 37.1914 34.3153 37.5197V38.8328H24.9592V23.5677C24.9592 23.3488 24.8497 23.1573 24.6309 22.9932C24.412 22.829 24.1932 22.747 23.9744 22.747H15.439C15.2201 22.747 15.0013 22.829 14.7824 22.9932C14.5635 23.1573 14.4541 23.3488 14.4541 23.5677V38.8328H2.14352V20.449L19.7066 2.88587L33.0021 16.1813L27.2572 29.1485C26.8194 30.3522 26.9289 31.4738 27.5854 32.5134C28.242 33.553 29.2269 34.0728 30.54 34.0728H37.2698V36.5349H35.136ZM43.9996 22.0904C44.2185 22.3093 44.4373 22.4187 44.6562 22.4187C44.875 22.4187 45.0938 22.3093 45.3127 22.0904C45.5316 21.8715 45.641 21.6253 45.641 21.3518C45.641 21.0782 45.5316 20.8593 45.3127 20.6952C45.0938 20.5311 44.875 20.449 44.6562 20.449C44.4373 20.449 44.2185 20.5311 43.9996 20.6952C43.7807 20.8593 43.6713 21.0782 43.6713 21.3518C43.6713 21.6253 43.7807 21.8715 43.9996 22.0904Z" fill="black"/>
</g>
</svg>
